<?xml version="1.0" encoding="UTF-8" standalone="no"?>
<svg
   xmlns:dc="http://purl.org/dc/elements/1.1/"
   xmlns:cc="http://creativecommons.org/ns#"
   xmlns:rdf="http://www.w3.org/1999/02/22-rdf-syntax-ns#"
   xmlns:svg="http://www.w3.org/2000/svg"
   xmlns="http://www.w3.org/2000/svg"
   id="svg2"
   preserveAspectRatio="xMidYMid meet"
   viewBox="0 0 216.9498 29.962206"
   height="29.962206pt"
   width="216.9498pt"
   version="1.0">
  <defs
     id="defs12" />
  <metadata
     id="metadata4">
Created by potrace 1.11, written by Peter Selinger 2001-2013
<rdf:RDF>
  <cc:Work
     rdf:about="">
    <dc:format>image/svg+xml</dc:format>
    <dc:type
       rdf:resource="http://purl.org/dc/dcmitype/StillImage" />
    <dc:title></dc:title>
  </cc:Work>
</rdf:RDF>
</metadata>
  <g
     style="fill:#000000;stroke:none"
     id="g6"
     transform="matrix(0.1,0,0,-0.1,-188.83607,185.00574)">
    <g
       id="g3869">
      <g
         id="g3902">
        <g
           transform="matrix(0.11245877,0,0,0.11245877,2030.5223,1522.2777)"
           id="g3621">
          <rect
             style="opacity:1;fill:#fe5000;fill-opacity:1;fill-rule:evenodd;stroke:none;stroke-width:2;stroke-linejoin:round;stroke-miterlimit:4;stroke-dasharray:none;stroke-dashoffset:4.61999989;stroke-opacity:1"
             id="rect3342"
             width="2664.2834"
             height="2664.2834"
             x="-1264.1222"
             y="-2914.6653"
             transform="scale(1,-1)"
             ry="335.87787" />
          <g
             id="g3604"
             transform="matrix(0.85920154,0,0,0.85920154,-2271.1629,458.87568)"
             style="fill:#ffffff">
            <g
               style="fill:#ffffff"
               transform="matrix(10,0,0,10,3374.2611,2341.7245)"
               id="g3534">
              <path
                 id="path3536"
                 style="fill:#ffffff;fill-opacity:1;fill-rule:evenodd;stroke:none"
                 d="m 0,0 -37.666,-18.833 c -8.815,-4.407 -14.382,-13.416 -14.382,-23.275 l 0,-127.043 37.658,18.825 C -5.574,-145.911 0,-136.902 0,-127.049 L 0,0 Z" />
            </g>
            <g
               style="fill:#ffffff"
               transform="matrix(10,0,0,10,2593.5471,1235.7225)"
               id="g3538">
              <path
                 id="path3540"
                 style="fill:#ffffff;fill-opacity:1;fill-rule:evenodd;stroke:none"
                 d="m 0,0 -37.667,-18.833 c -8.814,-4.407 -14.381,-13.416 -14.381,-23.275 l 0,-55.484 37.658,18.833 C -5.575,-74.35 0,-65.341 0,-55.482 L 0,0 Z" />
            </g>
          </g>
        </g>
        <g
           style="fill:#fe5000;fill-opacity:1"
           transform="matrix(5.7301587,0,0,-5.7301587,3149.827,6027.7046)"
           id="g3760">
          <g
             style="fill:#fe5000;fill-opacity:1"
             transform="matrix(0.97396986,0,0,0.97396986,-2.3023008,20.144264)"
             id="g3735">
            <g
               id="g3492"
               transform="matrix(1.25,0,0,-1.25,-103.0359,727.86526)"
               style="fill:#fe5000;fill-opacity:1">
              <path
                 d="m 0,0 -5.704,-2.854 c -1.337,-0.672 -2.182,-2.033 -2.182,-3.528 l 0,-1.51 5.703,2.854 C -0.845,-4.371 0,-3.004 0,-1.51 L 0,0 Z"
                 style="fill:#fe5000;fill-opacity:1;fill-rule:evenodd;stroke:none"
                 id="path3494" />
            </g>
            <g
               id="g3496"
               transform="matrix(1.25,0,0,-1.25,-139.74465,741.31714)"
               style="fill:#fe5000;fill-opacity:1">
              <path
                 d="m 0,0 c -1.338,-0.665 -2.181,-2.031 -2.181,-3.52 l 0,-11.484 c 0,-0.507 -0.031,-1.017 -0.087,-1.525 -0.2,-1.71 -1.173,-2.833 -2.883,-2.94 l -7.542,0 0,-6.491 c 0.087,0 4.779,-0.005 4.844,-0.005 1.583,0 3.171,-0.022 4.759,0.012 1.074,0.022 2.14,0.18 3.184,0.474 2.21,0.636 3.907,1.887 4.844,4.049 0.593,1.388 0.766,2.864 0.766,4.357 l 0,0.587 0,0.093 0,19.248 L 0,0 Z"
                 style="fill:#fe5000;fill-opacity:1;fill-rule:evenodd;stroke:none"
                 id="path3498" />
            </g>
            <g
               id="g3500"
               transform="matrix(1.25,0,0,-1.25,-96.471649,737.72939)"
               style="fill:#fe5000;fill-opacity:1">
              <path
                 d="m 0,0 -7.878,0 -5.244,-11.355 -0.03,0 -5.244,11.355 -7.886,0 9.203,-19.921 0,-9.001 7.891,0 0,9.029 L 0,0 Z"
                 style="fill:#fe5000;fill-opacity:1;fill-rule:evenodd;stroke:none"
                 id="path3502" />
            </g>
            <g
               id="g3504"
               transform="matrix(1.25,0,0,-1.25,-66.893149,762.81776)"
               style="fill:#fe5000;fill-opacity:1">
              <path
                 d="m 0,0 0,0.357 -0.015,0 c -0.028,0.823 -0.172,1.645 -0.407,2.47 -0.351,1.172 -0.996,2.132 -1.897,2.904 -0.143,0.121 -0.293,0.243 -0.451,0.35 -1.101,0.789 -2.339,1.311 -3.655,1.61 -1.833,0.417 -3.686,0.752 -5.533,1.124 -0.957,0.194 -2.373,0.386 -3.254,0.837 -0.565,0.287 -1.038,0.687 -1.18,1.309 -0.123,0.508 -0.131,1.052 -0.008,1.503 0.257,0.865 0.865,1.373 1.982,1.639 0.707,0.165 1.588,0.263 2.382,0.285 0.223,0.007 0.444,0.007 0.674,0 l 0.027,0 c 0.702,-0.027 1.396,-0.12 2.091,-0.285 1.501,-0.357 2.095,-1.16 2.117,-2.676 l 0,-0.552 7.127,0 c 0,0.802 0.007,1.388 -0.063,2.169 -0.245,2.433 -1.49,4.228 -3.672,5.416 -1.876,1.017 -3.936,1.381 -6.046,1.539 -0.616,0.049 -1.231,0.065 -1.847,0.072 l -0.207,0 -0.201,0 c -0.614,-0.007 -1.229,-0.023 -1.845,-0.072 -2.112,-0.158 -4.173,-0.522 -6.047,-1.539 -2.183,-1.188 -3.427,-2.983 -3.671,-5.416 -0.049,-0.487 -0.056,-0.901 -0.056,-1.347 -0.008,-0.248 0,-0.507 0.014,-0.758 l 0,-0.064 c 0.049,-0.744 0.185,-1.487 0.406,-2.232 0.345,-1.166 0.988,-2.133 1.889,-2.912 0.145,-0.115 0.295,-0.236 0.454,-0.344 1.1,-0.787 2.338,-1.309 3.655,-1.61 1.832,-0.414 3.683,-0.751 5.53,-1.123 0.96,-0.194 2.47,-0.386 3.349,-0.837 0.566,-0.285 1.031,-0.687 1.181,-1.31 0.057,-0.236 0.086,-0.465 0.094,-0.694 -0.008,-0.199 -0.022,-0.378 -0.051,-0.551 -0.015,-0.079 -0.021,-0.15 -0.043,-0.229 l 0.007,0 c -0.221,-1.007 -0.866,-1.611 -2.074,-1.896 -0.702,-0.172 -1.588,-0.271 -2.384,-0.293 -0.222,-0.008 -0.45,-0.008 -0.672,0 l -0.03,0 c -0.7,0.029 -1.394,0.121 -2.088,0.293 -1.504,0.352 -2.097,1.159 -2.119,2.669 l 0,0.551 -7.126,0 c 0,-0.8 -0.014,-1.388 0.064,-2.168 0.244,-2.433 1.488,-4.228 3.671,-5.417 1.874,-1.015 3.935,-1.38 6.047,-1.537 0.616,-0.051 1.231,-0.066 1.845,-0.071 l 0.201,0 0.207,0 c 0.616,0.005 1.231,0.02 1.847,0.071 2.11,0.157 4.17,0.522 6.046,1.537 2.182,1.189 3.427,2.984 3.672,5.417 C 0,-1.16 0,-0.645 0,-0.029 L 0,0 Z"
                 style="fill:#fe5000;fill-opacity:1;fill-rule:evenodd;stroke:none"
                 id="path3506" />
            </g>
            <g
               id="g3508"
               transform="matrix(1.25,0,0,-1.25,-37.271029,773.87214)"
               style="fill:#fe5000;fill-opacity:1">
              <path
                 d="m 0,0 7.886,0 -11.835,28.914 -7.913,0 L -23.697,0 l 7.883,0 1.611,3.941 12.586,0 L 0,0 Z m -12.049,9.201 4.143,10.116 4.144,-10.116 -8.287,0 z"
                 style="fill:#fe5000;fill-opacity:1;fill-rule:evenodd;stroke:none"
                 id="path3510" />
            </g>
            <path
               d="m 5.3921007,773.87214 1.63625,0 0,-36.14375 -1.63625,0 0,36.14375 z"
               style="fill:#fe5000;fill-opacity:1;fill-rule:evenodd;stroke:none"
               id="path3512" />
            <g
               id="g3514"
               transform="matrix(1.25,0,0,-1.25,-2.8267793,737.72939)"
               style="fill:#fe5000;fill-opacity:1">
              <path
                 d="M 0,0 0,-16.308 C -0.343,-15.706 -9.194,0 -9.194,0 l -7.886,0 0,-28.914 7.886,0 0,16.314 C -9.101,-12.765 -0.323,-28.335 0,-28.914 l 7.893,0 L 7.893,0 0,0 Z"
                 style="fill:#fe5000;fill-opacity:1;fill-rule:evenodd;stroke:none"
                 id="path3516" />
            </g>
          </g>
          <g
             style="fill:#fe5000;fill-opacity:1"
             id="g3750"
             transform="matrix(0.97451279,0,0,0.97451279,173.4924,-22.167804)">
            <g
               id="g3518"
               transform="matrix(1.25,0,0,-1.25,-96.418899,816.85902)"
               style="fill:#fe5000;fill-opacity:1">
              <path
                 d="m 0,0 7.886,0 -11.835,28.914 -7.913,0 L -23.697,0 l 7.883,0 1.618,3.943 12.586,0 L 0,0 Z m -12.049,9.202 4.143,10.117 4.144,-10.117 -8.287,0 z"
                 style="fill:#fe5000;fill-opacity:1;fill-rule:evenodd;stroke:none"
                 id="path3520" />
            </g>
            <g
               id="g3522"
               transform="matrix(1.25,0,0,-1.25,-27.548779,816.85902)"
               style="fill:#fe5000;fill-opacity:1">
              <path
                 d="m 0,0 9.703,0 -11.892,15.843 11.857,13.071 -10.476,0 -7.886,-8.694 0,8.694 -7.884,0 0,-28.914 7.884,0 0,8.673 1.197,1.316 L 0,0 Z"
                 style="fill:#fe5000;fill-opacity:1;fill-rule:evenodd;stroke:none"
                 id="path3524" />
            </g>
            <g
               id="g3526"
               transform="matrix(1.25,0,0,-1.25,-126.0594,805.11539)"
               style="fill:#fe5000;fill-opacity:1">
              <path
                 d="m 0,0 c -0.029,0.515 -0.085,1.031 -0.214,1.531 -0.466,1.854 -1.647,3.134 -3.321,3.986 -0.107,0.057 -0.207,0.114 -0.372,0.207 0.129,0.072 0.187,0.108 0.243,0.136 1.483,0.795 2.325,2.053 2.662,3.685 0.259,1.26 0.251,2.533 0.058,3.8 -0.238,1.538 -0.924,2.841 -2.126,3.856 -1.317,1.117 -2.883,1.668 -4.543,1.983 -1.366,0.264 -2.755,0.342 -4.143,0.335 l -4,0 -7.885,0 0,-28.914 7.885,0 0,0.007 c 1.59,0 3.178,0 4.766,0.007 1.122,0.008 2.253,0.086 3.377,0.207 1.473,0.151 2.883,0.566 4.179,1.31 1.795,1.031 2.919,2.548 3.298,4.601 C 0.064,-2.181 0.057,-1.088 0,0 m -11.163,-4.144 c -0.027,0 -0.048,0.008 -0.086,0.008 -0.549,-0.015 -1.351,0 -1.881,0 -0.823,0 -1.803,0.008 -2.626,0 l 0,6.569 4.593,0 c 1.818,0 3.292,-1.468 3.292,-3.285 0,-1.817 -1.474,-3.292 -3.292,-3.292 m 0.008,11.835 -0.008,0 -4.593,0 0,6.577 c 0.866,-0.007 3.35,-0.007 4.545,-0.007 l 0.056,0 c 1.81,0 3.284,-1.468 3.284,-3.285 0,-1.81 -1.474,-3.285 -3.284,-3.285"
                 style="fill:#fe5000;fill-opacity:1;fill-rule:evenodd;stroke:none"
                 id="path3528" />
            </g>
            <g
               id="g3530"
               transform="matrix(1.25,0,0,-1.25,-61.965399,780.71639)"
               style="fill:#fe5000;fill-opacity:1">
              <path
                 d="M 0,0 0,-16.306 C -0.35,-15.706 -9.201,0 -9.201,0 l -7.886,0 0,-28.914 7.886,0 0,16.308 C -9.103,-12.763 -0.323,-28.333 0,-28.914 l 7.886,0 L 7.886,0 0,0 Z"
                 style="fill:#fe5000;fill-opacity:1;fill-rule:evenodd;stroke:none"
                 id="path3532" />
            </g>
          </g>
        </g>
      </g>
    </g>
  </g>
</svg>
